{
    "asset" : {
        "generator" : "Khronos glTF Blender I/O v1.2.75",
        "version" : "2.0"
    },
    "scene" : 0,
    "scenes" : [
        {
            "name" : "Scene",
            "nodes" : [
                0,
                1,
                2,
                3,
                4
            ]
        }
    ],
    "nodes" : [
        {
            "name" : "Light",
            "rotation" : [
                0.16907575726509094,
                0.7558803558349609,
                -0.27217137813568115,
                0.570947527885437
            ],
            "translation" : [
                0.3821619749069214,
                0.2722901999950409,
                -0.009170763194561005
            ]
        },
        {
            "name" : "Camera",
            "rotation" : [
                -0.08882927149534225,
                0.8130012154579163,
                -0.5608543753623962,
                -0.12876632809638977
            ],
            "scale" : [
                0.09853490442037582,
                0.09853490442037582,
                0.09853491187095642
            ],
            "translation" : [
                -0.09805399179458618,
                0.09569190442562103,
                -0.22109875082969666
            ]
        },
        {
            "mesh" : 0,
            "name" : "Donut",
            "translation" : [
                0,
                0.018095502629876137,
                0
            ]
        },
        {
            "mesh" : 1,
            "name" : "Icing",
            "translation" : [
                0,
                0.018095502629876137,
                0
            ]
        },
        {
            "mesh" : 2,
            "name" : "Plane",
            "scale" : [
                2.0167481899261475,
                2.0167481899261475,
                2.0167481899261475
            ]
        }
    ],
    "materials" : [
        {
            "doubleSided" : true,
            "emissiveFactor" : [
                0,
                0,
                0
            ],
            "name" : "Material.002",
            "pbrMetallicRoughness" : {
                "metallicFactor" : 0,
                "roughnessFactor" : 0.5
            }
        },
        {
            "doubleSided" : true,
            "emissiveFactor" : [
                0,
                0,
                0
            ],
            "name" : "Material.001",
            "pbrMetallicRoughness" : {
                "baseColorFactor" : [
                    0.8000000715255737,
                    0.17090041935443878,
                    0.7698966860771179,
                    1
                ],
                "metallicFactor" : 0,
                "roughnessFactor" : 0.15499107539653778
            }
        }
    ],
    "meshes" : [
        {
            "name" : "Torus",
            "primitives" : [
                {
                    "attributes" : {
                        "POSITION" : 0,
                        "NORMAL" : 1,
                        "TEXCOORD_0" : 2
                    },
                    "indices" : 3,
                    "material" : 0
                }
            ]
        },
        {
            "name" : "Torus.003",
            "primitives" : [
                {
                    "attributes" : {
                        "POSITION" : 4,
                        "NORMAL" : 5,
                        "TEXCOORD_0" : 6
                    },
                    "indices" : 7,
                    "material" : 1
                }
            ]
        },
        {
            "name" : "Plane",
            "primitives" : [
                {
                    "attributes" : {
                        "POSITION" : 8,
                        "NORMAL" : 9,
                        "TEXCOORD_0" : 10
                    },
                    "indices" : 11
                }
            ]
        }
    ],
    "accessors" : [
        {
            "bufferView" : 0,
            "componentType" : 5126,
            "count" : 455,
            "max" : [
                0.047860655933618546,
                0.025079533457756042,
                0.048415251076221466
            ],
            "min" : [
                -0.04931175708770752,
                -0.01924017444252968,
                -0.04775538295507431
            ],
            "type" : "VEC3"
        },
        {
            "bufferView" : 1,
            "componentType" : 5126,
            "count" : 455,
            "type" : "VEC3"
        },
        {
            "bufferView" : 2,
            "componentType" : 5126,
            "count" : 455,
            "type" : "VEC2"
        },
        {
            "bufferView" : 3,
            "componentType" : 5123,
            "count" : 2448,
            "type" : "SCALAR"
        },
        {
            "bufferView" : 4,
            "componentType" : 5126,
            "count" : 8181,
            "max" : [
                0.05075014755129814,
                0.0267891027033329,
                0.049309007823467255
            ],
            "min" : [
                -0.05172142758965492,
                -0.01295412052422762,
                -0.050562046468257904
            ],
            "type" : "VEC3"
        },
        {
            "bufferView" : 5,
            "componentType" : 5126,
            "count" : 8181,
            "type" : "VEC3"
        },
        {
            "bufferView" : 6,
            "componentType" : 5126,
            "count" : 8181,
            "type" : "VEC2"
        },
        {
            "bufferView" : 7,
            "componentType" : 5123,
            "count" : 43872,
            "type" : "SCALAR"
        },
        {
            "bufferView" : 8,
            "componentType" : 5126,
            "count" : 4,
            "max" : [
                1,
                0,
                1
            ],
            "min" : [
                -1,
                0,
                -1
            ],
            "type" : "VEC3"
        },
        {
            "bufferView" : 9,
            "componentType" : 5126,
            "count" : 4,
            "type" : "VEC3"
        },
        {
            "bufferView" : 10,
            "componentType" : 5126,
            "count" : 4,
            "type" : "VEC2"
        },
        {
            "bufferView" : 11,
            "componentType" : 5123,
            "count" : 6,
            "type" : "SCALAR"
        }
    ],
    "bufferViews" : [
        {
            "buffer" : 0,
            "byteLength" : 5460,
            "byteOffset" : 0
        },
        {
            "buffer" : 0,
            "byteLength" : 5460,
            "byteOffset" : 5460
        },
        {
            "buffer" : 0,
            "byteLength" : 3640,
            "byteOffset" : 10920
        },
        {
            "buffer" : 0,
            "byteLength" : 4896,
            "byteOffset" : 14560
        },
        {
            "buffer" : 0,
            "byteLength" : 98172,
            "byteOffset" : 19456
        },
        {
            "buffer" : 0,
            "byteLength" : 98172,
            "byteOffset" : 117628
        },
        {
            "buffer" : 0,
            "byteLength" : 65448,
            "byteOffset" : 215800
        },
        {
            "buffer" : 0,
            "byteLength" : 87744,
            "byteOffset" : 281248
        },
        {
            "buffer" : 0,
            "byteLength" : 48,
            "byteOffset" : 368992
        },
        {
            "buffer" : 0,
            "byteLength" : 48,
            "byteOffset" : 369040
        },
        {
            "buffer" : 0,
            "byteLength" : 32,
            "byteOffset" : 369088
        },
        {
            "buffer" : 0,
            "byteLength" : 12,
            "byteOffset" : 369120
        }
    ],
    "buffers" : [
        {
            "byteLength" : 369132,
            "uri" : "data:application/octet-stream;base64,"
        }
    ]
}
